<svg width="310" height="21" viewBox="0 0 310 21" fill="none" xmlns="http://www.w3.org/2000/svg">
<path d="M211.613 21.002C210.127 21.002 208.641 20.724 207.156 20.168C205.67 19.612 204.421 18.8783 203.41 17.9668L205.652 14.6719C206.454 15.4102 207.388 16.0072 208.455 16.4629C209.53 16.9095 210.574 17.1328 211.585 17.1328C212.479 17.1328 213.235 16.9551 213.855 16.5996C214.484 16.2441 214.798 15.7884 214.798 15.2324C214.798 15.0137 214.753 14.8177 214.662 14.6445C214.58 14.4622 214.434 14.2982 214.224 14.1523C214.024 14.0065 213.828 13.8835 213.636 13.7832C213.454 13.6738 213.181 13.5645 212.816 13.4551C212.451 13.3366 212.155 13.25 211.927 13.1953C211.708 13.1315 211.371 13.0449 210.916 12.9355C206.413 11.8509 204.162 9.79557 204.162 6.76953C204.162 5.03776 204.845 3.64323 206.212 2.58594C207.58 1.52865 209.38 1 211.613 1C213.044 1 214.352 1.21875 215.537 1.65625C216.731 2.09375 217.701 2.66797 218.449 3.37891L216.425 6.6875C215.86 6.14974 215.136 5.71224 214.251 5.375C213.367 5.03776 212.479 4.86914 211.585 4.86914C210.72 4.86914 210.009 5.0332 209.453 5.36133C208.897 5.68034 208.619 6.09505 208.619 6.60547C208.619 6.90625 208.714 7.17969 208.906 7.42578C209.097 7.67188 209.371 7.88151 209.726 8.05469C210.091 8.22786 210.46 8.3737 210.833 8.49219C211.216 8.61068 211.654 8.72005 212.146 8.82031C212.483 8.89323 212.798 8.9707 213.089 9.05273C213.381 9.12565 213.782 9.25325 214.292 9.43555C214.803 9.60872 215.263 9.80013 215.673 10.0098C216.083 10.2103 216.521 10.4792 216.986 10.8164C217.451 11.1445 217.838 11.5046 218.148 11.8965C218.467 12.2793 218.731 12.7441 218.941 13.291C219.151 13.8288 219.255 14.4076 219.255 15.0273C219.255 16.1849 218.918 17.224 218.244 18.1445C217.569 19.056 216.653 19.7624 215.496 20.2637C214.338 20.7559 213.044 21.002 211.613 21.002Z" fill="#333333"/>
<path d="M195.604 1.3418H199.952V20.6602H195.55L187.552 8.84766V20.6602H183.204V1.3418H187.579L195.604 13.1543V1.3418Z" fill="#333333"/>
<path d="M173.184 20.2363C171.926 20.7467 170.581 21.002 169.15 21.002C167.719 21.002 166.37 20.7467 165.104 20.2363C163.837 19.7168 162.752 19.015 161.85 18.1309C160.947 17.2467 160.236 16.1895 159.717 14.959C159.197 13.7194 158.938 12.3978 158.938 10.9941C158.938 9.5905 159.197 8.27344 159.717 7.04297C160.236 5.80339 160.947 4.74154 161.85 3.85742C162.752 2.97331 163.837 2.27604 165.104 1.76562C166.37 1.25521 167.719 1 169.15 1C171.055 1 172.787 1.4375 174.346 2.3125C175.913 3.17839 177.144 4.37695 178.037 5.9082C178.93 7.43034 179.377 9.12565 179.377 10.9941C179.377 12.3978 179.113 13.7194 178.584 14.959C178.064 16.1895 177.349 17.2467 176.438 18.1309C175.535 19.015 174.451 19.7168 173.184 20.2363ZM165.035 15.1641C166.138 16.2669 167.51 16.8184 169.15 16.8184C170.791 16.8184 172.163 16.2669 173.266 15.1641C174.368 14.0521 174.92 12.6621 174.92 10.9941C174.92 9.32617 174.368 7.94076 173.266 6.83789C172.163 5.72591 170.791 5.16992 169.15 5.16992C167.51 5.16992 166.138 5.72591 165.035 6.83789C163.932 7.94076 163.381 9.32617 163.381 10.9941C163.381 12.6621 163.932 14.0521 165.035 15.1641Z" fill="#333333"/>
<path d="M150.722 20.6602V1.3418H155.069V20.6602H150.722Z" fill="#333333"/>
<path d="M147.059 1.3418V5.42969H141.686V20.6602H137.338V5.42969H131.965V1.3418H147.059Z" fill="#333333"/>
<path d="M127.851 20.6602L126.648 17.2695H118.8L117.597 20.6602H112.949L120.208 1.3418H125.335L132.609 20.6602H127.851ZM120.208 13.2637H125.24L122.724 6.12695L120.208 13.2637Z" fill="#333333"/>
<path d="M109.204 1.3418H113.961L106.401 20.6602H101.917L94.356 1.3418H99.2095L104.213 14.8633L109.204 1.3418Z" fill="#333333"/>
<path d="M88.418 20.6602L84.4395 14.0566H80.3477V20.6602H76V1.3418H86.3809C88.304 1.3418 89.9036 1.95703 91.1797 3.1875C92.4557 4.41797 93.0938 5.95833 93.0938 7.80859C93.0938 9.14844 92.7337 10.3288 92.0137 11.3496C91.2936 12.3613 90.3275 13.1042 89.1152 13.5781L93.627 20.6602H88.418ZM80.3477 5.42969V10.2695H86.2852C86.9505 10.2695 87.5065 10.0417 87.9531 9.58594C88.4089 9.12109 88.6367 8.54688 88.6367 7.86328C88.6367 7.17057 88.4134 6.5918 87.9668 6.12695C87.5202 5.66211 86.9596 5.42969 86.2852 5.42969H80.3477Z" fill="#333333"/>
<path d="M61.7036 16.5723H71.604V20.6602H57.356V1.3418H71.4673V5.42969H61.7036V8.90234H70.5376V12.9902H61.7036V16.5723Z" fill="#333333"/>
<path d="M46.2285 21.002C44.7428 21.002 43.2572 20.724 41.7715 20.168C40.2858 19.612 39.0371 18.8783 38.0254 17.9668L40.2676 14.6719C41.0697 15.4102 42.0039 16.0072 43.0703 16.4629C44.1458 16.9095 45.1895 17.1328 46.2012 17.1328C47.0944 17.1328 47.8509 16.9551 48.4707 16.5996C49.0996 16.2441 49.4141 15.7884 49.4141 15.2324C49.4141 15.0137 49.3685 14.8177 49.2773 14.6445C49.1953 14.4622 49.0495 14.2982 48.8398 14.1523C48.6393 14.0065 48.4434 13.8835 48.252 13.7832C48.0697 13.6738 47.7962 13.5645 47.4316 13.4551C47.0671 13.3366 46.7708 13.25 46.543 13.1953C46.3242 13.1315 45.987 13.0449 45.5312 12.9355C41.0286 11.8509 38.7773 9.79557 38.7773 6.76953C38.7773 5.03776 39.4609 3.64323 40.8281 2.58594C42.1953 1.52865 43.9954 1 46.2285 1C47.6595 1 48.9674 1.21875 50.1523 1.65625C51.3464 2.09375 52.3171 2.66797 53.0645 3.37891L51.041 6.6875C50.4759 6.14974 49.7513 5.71224 48.8672 5.375C47.9831 5.03776 47.0944 4.86914 46.2012 4.86914C45.3353 4.86914 44.6243 5.0332 44.0684 5.36133C43.5124 5.68034 43.2344 6.09505 43.2344 6.60547C43.2344 6.90625 43.3301 7.17969 43.5215 7.42578C43.7129 7.67188 43.9863 7.88151 44.3418 8.05469C44.7064 8.22786 45.0755 8.3737 45.4492 8.49219C45.832 8.61068 46.2695 8.72005 46.7617 8.82031C47.099 8.89323 47.4134 8.9707 47.7051 9.05273C47.9967 9.12565 48.3978 9.25325 48.9082 9.43555C49.4186 9.60872 49.8789 9.80013 50.2891 10.0098C50.6992 10.2103 51.1367 10.4792 51.6016 10.8164C52.0664 11.1445 52.4538 11.5046 52.7637 11.8965C53.0827 12.2793 53.347 12.7441 53.5566 13.291C53.7663 13.8288 53.8711 14.4076 53.8711 15.0273C53.8711 16.1849 53.5339 17.224 52.8594 18.1445C52.1849 19.056 51.2689 19.7624 50.1113 20.2637C48.9538 20.7559 47.6595 21.002 46.2285 21.002Z" fill="#333333"/>
<path d="M25.2959 16.5723H35.1963V20.6602H20.9482V1.3418H35.0596V5.42969H25.2959V8.90234H34.1299V12.9902H25.2959V16.5723Z" fill="#333333"/>
<path d="M12.418 20.6602L8.43945 14.0566H4.34766V20.6602H0V1.3418H10.3809C12.304 1.3418 13.9036 1.95703 15.1797 3.1875C16.4557 4.41797 17.0938 5.95833 17.0938 7.80859C17.0938 9.14844 16.7337 10.3288 16.0137 11.3496C15.2936 12.3613 14.3275 13.1042 13.1152 13.5781L17.627 20.6602H12.418ZM4.34766 5.42969V10.2695H10.2852C10.9505 10.2695 11.5065 10.0417 11.9531 9.58594C12.4089 9.12109 12.6367 8.54688 12.6367 7.86328C12.6367 7.17057 12.4134 6.5918 11.9668 6.12695C11.5202 5.66211 10.9596 5.42969 10.2852 5.42969H4.34766Z" fill="#333333"/>
<path d="M303.785 0.341797H309.076V19.6602H304.742V7.25977L299.861 16.4062H297.4L292.533 7.25977V19.6602H288.186V0.341797H293.559L298.658 9.88477L303.785 0.341797Z" fill="#333333"/>
<path d="M278.165 19.2363C276.907 19.7467 275.563 20.002 274.132 20.002C272.701 20.002 271.352 19.7467 270.085 19.2363C268.818 18.7168 267.733 18.015 266.831 17.1309C265.929 16.2467 265.218 15.1895 264.698 13.959C264.179 12.7194 263.919 11.3978 263.919 9.99414C263.919 8.5905 264.179 7.27344 264.698 6.04297C265.218 4.80339 265.929 3.74154 266.831 2.85742C267.733 1.97331 268.818 1.27604 270.085 0.765625C271.352 0.255208 272.701 0 274.132 0C276.037 0 277.769 0.4375 279.327 1.3125C280.895 2.17839 282.125 3.37695 283.019 4.9082C283.912 6.43034 284.358 8.12565 284.358 9.99414C284.358 11.3978 284.094 12.7194 283.565 13.959C283.046 15.1895 282.33 16.2467 281.419 17.1309C280.517 18.015 279.432 18.7168 278.165 19.2363ZM270.017 14.1641C271.119 15.2669 272.491 15.8184 274.132 15.8184C275.772 15.8184 277.144 15.2669 278.247 14.1641C279.35 13.0521 279.901 11.6621 279.901 9.99414C279.901 8.32617 279.35 6.94076 278.247 5.83789C277.144 4.72591 275.772 4.16992 274.132 4.16992C272.491 4.16992 271.119 4.72591 270.017 5.83789C268.914 6.94076 268.362 8.32617 268.362 9.99414C268.362 11.6621 268.914 13.0521 270.017 14.1641Z" fill="#333333"/>
<path d="M253.27 20.002C251.839 20.002 250.49 19.7467 249.223 19.2363C247.956 18.7168 246.871 18.015 245.969 17.1309C245.066 16.2467 244.355 15.1895 243.836 13.959C243.316 12.7194 243.057 11.3978 243.057 9.99414C243.057 8.5905 243.316 7.27344 243.836 6.04297C244.355 4.80339 245.066 3.74154 245.969 2.85742C246.871 1.97331 247.956 1.27604 249.223 0.765625C250.49 0.255208 251.839 0 253.27 0C255.065 0 256.706 0.38737 258.191 1.16211C259.686 1.92773 260.894 2.98958 261.814 4.34766L258.055 6.67188C257.526 5.89714 256.842 5.28646 256.004 4.83984C255.165 4.39323 254.254 4.16992 253.27 4.16992C251.629 4.16992 250.257 4.72591 249.154 5.83789C248.051 6.94076 247.5 8.32617 247.5 9.99414C247.5 11.6621 248.051 13.0521 249.154 14.1641C250.257 15.2669 251.629 15.8184 253.27 15.8184C254.263 15.8184 255.174 15.5996 256.004 15.1621C256.842 14.7155 257.526 14.1048 258.055 13.3301L261.814 15.6543C260.894 17.0124 259.686 18.0788 258.191 18.8535C256.706 19.6191 255.065 20.002 253.27 20.002Z" fill="#333333"/>
<circle cx="231.154" cy="10.6602" r="6" fill="#E42516"/>
</svg>
