<svg width="18" height="18" viewBox="0 0 18 18" fill="none" xmlns="http://www.w3.org/2000/svg">
<path fill-rule="evenodd" clip-rule="evenodd" d="M9.00033 2.33366C5.31843 2.33366 2.33366 5.31843 2.33366 9.00033C2.33366 12.6822 5.31843 15.667 9.00033 15.667C12.6822 15.667 15.667 12.6822 15.667 9.00033C15.667 5.31843 12.6822 2.33366 9.00033 2.33366ZM0.666992 9.00033C0.666992 4.39795 4.39795 0.666992 9.00033 0.666992C13.6027 0.666992 17.3337 4.39795 17.3337 9.00033C17.3337 13.6027 13.6027 17.3337 9.00033 17.3337C4.39795 17.3337 0.666992 13.6027 0.666992 9.00033ZM9.00033 5.66699C9.46056 5.66699 9.83366 6.04009 9.83366 6.50033V8.16699H11.5003C11.9606 8.16699 12.3337 8.54009 12.3337 9.00033C12.3337 9.46056 11.9606 9.83366 11.5003 9.83366H9.83366V11.5003C9.83366 11.9606 9.46056 12.3337 9.00033 12.3337C8.54009 12.3337 8.16699 11.9606 8.16699 11.5003V9.83366H6.50033C6.04009 9.83366 5.66699 9.46056 5.66699 9.00033C5.66699 8.54009 6.04009 8.16699 6.50033 8.16699H8.16699V6.50033C8.16699 6.04009 8.54009 5.66699 9.00033 5.66699Z" fill="#333333"/>
</svg>
