<svg width="17" height="18" viewBox="0 0 17 18" fill="none" xmlns="http://www.w3.org/2000/svg">
<path d="M8.33398 2.75C8.33398 1.64543 7.43855 0.75 6.33398 0.75C5.22941 0.75 4.33398 1.64543 4.33398 2.75C4.33398 3.85457 5.22941 4.75 6.33398 4.75C7.43855 4.75 8.33398 3.85457 8.33398 2.75Z" fill="#0F172A"/>
<path d="M15.584 3.5C15.9982 3.5 16.334 3.16421 16.334 2.75C16.334 2.33579 15.9982 2 15.584 2L10.084 2C9.66977 2 9.33398 2.33579 9.33398 2.75C9.33398 3.16421 9.66977 3.5 10.084 3.5L15.584 3.5Z" fill="#0F172A"/>
<path d="M3.33398 2.75C3.33398 3.16421 2.9982 3.5 2.58398 3.5H1.08398C0.669771 3.5 0.333984 3.16421 0.333984 2.75C0.333984 2.33579 0.669771 2 1.08398 2L2.58398 2C2.9982 2 3.33398 2.33579 3.33398 2.75Z" fill="#0F172A"/>
<path d="M2.58398 16C2.9982 16 3.33398 15.6642 3.33398 15.25C3.33398 14.8358 2.9982 14.5 2.58398 14.5H1.08398C0.669771 14.5 0.333984 14.8358 0.333984 15.25C0.333984 15.6642 0.669771 16 1.08398 16H2.58398Z" fill="#0F172A"/>
<path d="M15.584 16C15.9982 16 16.334 15.6642 16.334 15.25C16.334 14.8358 15.9982 14.5 15.584 14.5H10.084C9.66977 14.5 9.33398 14.8358 9.33398 15.25C9.33398 15.6642 9.66977 16 10.084 16H15.584Z" fill="#0F172A"/>
<path d="M7.33398 9C7.33398 9.41421 6.9982 9.75 6.58398 9.75H1.08398C0.669771 9.75 0.333984 9.41421 0.333984 9C0.333984 8.58579 0.669771 8.25 1.08398 8.25L6.58398 8.25C6.9982 8.25 7.33398 8.58579 7.33398 9Z" fill="#0F172A"/>
<path d="M15.584 9.75C15.9982 9.75 16.334 9.41421 16.334 9C16.334 8.58579 15.9982 8.25 15.584 8.25H14.084C13.6698 8.25 13.334 8.58579 13.334 9C13.334 9.41421 13.6698 9.75 14.084 9.75H15.584Z" fill="#0F172A"/>
<path d="M12.334 9C12.334 7.89543 11.4386 7 10.334 7C9.22941 7 8.33398 7.89543 8.33398 9C8.33398 10.1046 9.22941 11 10.334 11C11.4386 11 12.334 10.1046 12.334 9Z" fill="#0F172A"/>
<path d="M8.33398 15.25C8.33398 14.1454 7.43855 13.25 6.33398 13.25C5.22941 13.25 4.33398 14.1454 4.33398 15.25C4.33398 16.3546 5.22941 17.25 6.33398 17.25C7.43855 17.25 8.33398 16.3546 8.33398 15.25Z" fill="#0F172A"/>
</svg>
