<svg width="25" height="24" viewBox="0 0 25 24" fill="none" xmlns="http://www.w3.org/2000/svg">
<path d="M22.5 12C22.5 17.5228 18.0228 22 12.5 22M22.5 12C22.5 6.47715 18.0228 2 12.5 2M22.5 12C22.5 9.79086 18.0228 8 12.5 8C6.97715 8 2.5 9.79086 2.5 12M22.5 12C22.5 14.2091 18.0228 16 12.5 16C6.97715 16 2.5 14.2091 2.5 12M12.5 22C6.97715 22 2.5 17.5228 2.5 12M12.5 22C14.7091 22 16.5 17.5228 16.5 12C16.5 6.47715 14.7091 2 12.5 2M12.5 22C10.2909 22 8.5 17.5228 8.5 12C8.5 6.47715 10.2909 2 12.5 2M2.5 12C2.5 6.47715 6.97715 2 12.5 2" stroke="white" stroke-width="1.5" stroke-linecap="round" stroke-linejoin="round"/>
</svg>
