<svg width="20" height="20" viewBox="0 0 20 20" fill="none" xmlns="http://www.w3.org/2000/svg">
<path d="M12.4998 8.50067C14.3408 8.50067 15.8333 6.84097 15.8333 5.00002C15.8333 3.15907 14.3408 1.50067 12.4998 1.50067M14.1667 18.3334H15.9667C17.0868 18.3334 17.6468 18.3334 18.0747 18.1154C18.451 17.9236 18.7569 17.6177 18.9487 17.2413C19.1667 16.8135 19.1667 16.2535 19.1667 15.1334V14.8667C19.1667 13.7466 19.1667 13.1865 18.9487 12.7587C18.7569 12.3824 18.451 12.0764 18.0747 11.8847C17.6468 11.6667 17.0868 11.6667 15.9667 11.6667H14.1667M10 5.00002C10 6.84097 8.50763 8.33335 6.66668 8.33335C4.82573 8.33335 3.33334 6.84097 3.33334 5.00002C3.33334 3.15907 4.82573 1.66669 6.66668 1.66669C8.50763 1.66669 10 3.15907 10 5.00002ZM4.03335 18.3334H9.30001C10.4201 18.3334 10.9802 18.3334 11.408 18.1154C11.7843 17.9236 12.0903 17.6177 12.282 17.2413C12.5 16.8135 12.5 16.2535 12.5 15.1334V14.8667C12.5 13.7466 12.5 13.1865 12.282 12.7587C12.0903 12.3824 11.7843 12.0764 11.408 11.8847C10.9802 11.6667 10.4201 11.6667 9.30001 11.6667H4.03334C2.91324 11.6667 2.35319 11.6667 1.92536 11.8847C1.54904 12.0764 1.24308 12.3824 1.05133 12.7587C0.833344 13.1865 0.833344 13.7466 0.833344 14.8667V15.1334C0.833344 16.2535 0.833344 16.8135 1.05133 17.2413C1.24308 17.6177 1.54904 17.9236 1.92536 18.1154C2.35319 18.3334 2.91324 18.3334 4.03335 18.3334Z" stroke="black" stroke-width="1.5" stroke-linecap="round" stroke-linejoin="round"/>
</svg>
