<svg width="25" height="24" viewBox="0 0 25 24" fill="none" xmlns="http://www.w3.org/2000/svg">
<path d="M15.5 10C17.7091 10 19.5 8.20914 19.5 6C19.5 3.79086 17.7091 2 15.5 2M17.5 22H20.3C22.0673 22 23.5 20.5673 23.5 18.8V18.8C23.5 16.149 21.351 14 18.7 14H17.5M12.5 6C12.5 8.20914 10.7091 10 8.5 10C6.29086 10 4.5 8.20914 4.5 6C4.5 3.79086 6.29086 2 8.5 2C10.7091 2 12.5 3.79086 12.5 6ZM4.7 22H12.3C14.0673 22 15.5 20.5673 15.5 18.8V18.8C15.5 16.149 13.351 14 10.7 14H6.3C3.64903 14 1.5 16.149 1.5 18.8V18.8C1.5 20.5673 2.93269 22 4.7 22Z" stroke="white" stroke-width="1.5" stroke-linecap="round" stroke-linejoin="round"/>
</svg>
