<svg width="34" height="33" viewBox="0 0 34 33" fill="none" xmlns="http://www.w3.org/2000/svg">
<path d="M15.569 2.52884C16.0296 1.60762 16.2599 1.14702 16.5716 0.999209C16.8428 0.870583 17.1574 0.870583 17.4286 0.99921C17.7403 1.14702 17.9706 1.60763 18.4312 2.52884L21.9441 9.55479C22.0864 9.83922 22.1575 9.98144 22.2615 10.0903C22.3536 10.1867 22.464 10.2637 22.5863 10.3168C22.7244 10.3768 22.8825 10.3943 23.1985 10.4295L30.8616 11.2809C31.9657 11.4036 32.5178 11.4649 32.7673 11.7195C32.9841 11.9407 33.0861 12.2499 33.0436 12.5567C32.9947 12.9097 32.5877 13.2877 31.7736 14.0436L25.7681 19.6201C25.4903 19.8782 25.3513 20.0072 25.271 20.1635C25.2001 20.3017 25.1623 20.4545 25.1606 20.6099C25.1588 20.7856 25.2216 20.9645 25.3471 21.3223L28.1367 29.2726C28.5456 30.4382 28.7501 31.021 28.6143 31.3669C28.4966 31.6669 28.2414 31.8918 27.9289 31.9709C27.5687 32.0621 27.0162 31.7859 25.9114 31.2334L17.7156 27.1356C17.4533 27.0044 17.3221 26.9388 17.1845 26.913C17.0626 26.8901 16.9376 26.8901 16.8157 26.913C16.6781 26.9388 16.5469 27.0044 16.2845 27.1356L8.0888 31.2334C6.98393 31.7859 6.4315 32.0621 6.07126 31.9709C5.75879 31.8918 5.50361 31.6669 5.38582 31.3669C5.25002 31.021 5.45451 30.4382 5.8635 29.2726L8.65306 21.3223C8.77861 20.9645 8.84138 20.7856 8.83954 20.6099C8.8379 20.4545 8.80011 20.3017 8.72913 20.1635C8.64884 20.0072 8.5099 19.8782 8.23202 19.6201L2.22651 14.0436C1.41245 13.2877 1.00542 12.9097 0.956513 12.5567C0.914012 12.2499 1.01608 11.9407 1.23289 11.7195C1.48238 11.4649 2.03444 11.4036 3.13855 11.2809L10.8016 10.4295C11.1177 10.3943 11.2757 10.3768 11.4139 10.3168C11.5361 10.2637 11.6466 10.1867 11.7387 10.0903C11.8427 9.98144 11.9138 9.83923 12.056 9.55479L15.569 2.52884Z" fill="white" stroke="#CF0014" stroke-width="1.5" stroke-linecap="round" stroke-linejoin="round"/>
</svg>
