<svg width="32" height="32" viewBox="0 0 32 32" fill="none" xmlns="http://www.w3.org/2000/svg">
<path d="M22.0712 20.1839L28.1212 21.6964C28.5546 21.8047 28.7712 21.8589 28.9325 21.9797C29.0749 22.0862 29.1862 22.2288 29.2551 22.3928C29.3332 22.5786 29.3332 22.8019 29.3332 23.2486V27.7332C29.3332 28.2912 29.3332 28.5702 29.2179 28.789C29.1195 28.9758 28.9496 29.138 28.7585 29.2279C28.5347 29.3331 28.2677 29.3209 27.7336 29.2965C22.5569 29.0604 17.9846 27.6746 14.2103 25.3327C10.9777 23.3268 8.44014 21.287 6.5 18C4.32279 14.3114 2.94619 9.34599 2.70466 4.26543C2.67932 3.73258 2.66666 3.46615 2.77168 3.2419C2.86125 3.05065 3.02387 2.88011 3.21065 2.78157C3.42966 2.66602 3.70861 2.66602 4.2665 2.66602H8.75059C9.19726 2.66602 9.4206 2.66602 9.6064 2.74408C9.77034 2.81296 9.91295 2.9243 10.0195 3.06664C10.1403 3.22796 10.1945 3.44463 10.3028 3.87795L10.3028 3.87796L11.8151 9.92726C11.883 10.1986 11.9169 10.3343 11.914 10.4684C11.9115 10.5871 11.8878 10.7045 11.8441 10.8149C11.7947 10.9395 11.7108 11.0514 11.543 11.2752L6.5 18C8.44014 21.287 10.9777 23.3268 14.2103 25.3327L20.7242 20.4553L20.7242 20.4553C20.9479 20.2878 21.0598 20.2041 21.1843 20.1548C21.2947 20.1112 21.412 20.0876 21.5306 20.085C21.6645 20.0822 21.8001 20.1161 22.0712 20.1839L22.0712 20.1839Z" fill="white"/>
<path d="M6.5 18C4.32279 14.3114 2.94619 9.34599 2.70466 4.26543C2.67932 3.73258 2.66666 3.46615 2.77168 3.2419C2.86125 3.05065 3.02387 2.88011 3.21065 2.78157C3.42966 2.66602 3.70861 2.66602 4.2665 2.66602H8.75059C9.19726 2.66602 9.4206 2.66602 9.6064 2.74408C9.77034 2.81296 9.91295 2.9243 10.0195 3.06664C10.1403 3.22796 10.1945 3.44463 10.3028 3.87796L11.8151 9.92726C11.883 10.1986 11.9169 10.3343 11.914 10.4684C11.9115 10.5871 11.8878 10.7045 11.8441 10.8149C11.7947 10.9395 11.7108 11.0514 11.543 11.2752L6.5 18ZM6.5 18C8.44014 21.287 10.9777 23.3268 14.2103 25.3327M14.2103 25.3327C17.9846 27.6746 22.5569 29.0604 27.7336 29.2965C28.2677 29.3209 28.5347 29.3331 28.7585 29.2279C28.9496 29.138 29.1195 28.9758 29.2179 28.789C29.3332 28.5702 29.3332 28.2912 29.3332 27.7332C29.3332 26.3025 29.3332 24.6369 29.3332 23.2486C29.3332 22.8019 29.3332 22.5786 29.2551 22.3928C29.1862 22.2288 29.0749 22.0862 28.9325 21.9797C28.7712 21.8589 28.5546 21.8047 28.1212 21.6964L22.0712 20.1839C21.8001 20.1161 21.6645 20.0822 21.5306 20.085C21.412 20.0876 21.2947 20.1112 21.1843 20.1548C21.0598 20.2041 20.9479 20.2878 20.7242 20.4553L14.2103 25.3327Z" stroke="#CF0014" stroke-width="1.5" stroke-linecap="round" stroke-linejoin="round"/>
</svg>
