<svg width="32" height="32" viewBox="0 0 32 32" fill="none" xmlns="http://www.w3.org/2000/svg">
<path d="M4 10.8258C4 9.32036 4 8.56762 4.23674 7.91045C4.44601 7.32955 4.78691 6.80498 5.23276 6.37783C5.73714 5.89458 6.425 5.58887 7.80073 4.97744L12.5343 2.87364C13.8105 2.30643 14.4487 2.02283 15.1119 1.91082C15.6998 1.81155 16.3002 1.81155 16.888 1.91082C17.5513 2.02283 18.1895 2.30643 19.4657 2.87364L24.1993 4.97744C25.575 5.58887 26.2629 5.89458 26.7672 6.37783C27.2131 6.80498 27.554 7.32955 27.7633 7.91045C28 8.56762 28 9.32036 28 10.8258V18.0997C28 19.7694 28 20.6043 27.7699 21.3621C27.5661 22.033 27.2321 22.6571 26.7869 23.1988C26.284 23.8106 25.5894 24.2737 24.2001 25.1999L19.5501 28.2999C18.267 29.1553 17.6255 29.5829 16.9322 29.7491C16.3194 29.8959 15.6806 29.8959 15.0678 29.7491C14.3745 29.5829 13.7329 29.1553 12.4499 28.2999L7.79989 25.1999C6.41061 24.2737 5.71596 23.8106 5.21309 23.1988C4.7679 22.6571 4.43388 22.033 4.23014 21.3621C4 20.6043 4 19.7694 4 18.0997V10.8258Z" fill="white"/>
<path d="M11.5 15.4994L13.5353 17.5351C13.9313 17.9312 14.1293 18.1292 14.3577 18.2034C14.5585 18.2687 14.7749 18.2687 14.9757 18.2035C15.2041 18.1293 15.4021 17.9312 15.7982 17.5352L20.6667 12.6667M15.3502 1.62215L4.95018 6.24434C4.60625 6.3972 4.43429 6.47363 4.30819 6.59444C4.19673 6.70122 4.1115 6.83237 4.05919 6.97759C4 7.14189 4 7.33007 4 7.70644V21.8103C4 22.1234 4 22.28 4.04315 22.422C4.08135 22.5478 4.14398 22.6649 4.22745 22.7664C4.32174 22.8811 4.45199 22.968 4.71248 23.1416L15.1125 30.075C15.4332 30.2888 15.5936 30.3957 15.767 30.4373C15.9202 30.474 16.0798 30.474 16.233 30.4373C16.4064 30.3957 16.5668 30.2888 16.8875 30.075L27.2875 23.1416C27.548 22.968 27.6783 22.8811 27.7725 22.7664C27.856 22.6649 27.9186 22.5478 27.9568 22.422C28 22.28 28 22.1234 28 21.8103V7.70644C28 7.33007 28 7.14189 27.9408 6.97759C27.8885 6.83237 27.8033 6.70122 27.6918 6.59444C27.5657 6.47363 27.3937 6.3972 27.0498 6.24434L16.6498 1.62215C16.4105 1.5158 16.2909 1.46262 16.1665 1.44162C16.0563 1.42301 15.9437 1.42301 15.8335 1.44162C15.7091 1.46262 15.5895 1.5158 15.3502 1.62215Z" stroke="#CF0014" stroke-width="1.5" stroke-linecap="round" stroke-linejoin="round"/>
</svg>
