<svg width="32" height="32" viewBox="0 0 32 32" fill="none" xmlns="http://www.w3.org/2000/svg">
<path d="M24.0001 16V2.66666L20.3832 4.27416C19.5679 4.63652 19.1602 4.8177 18.7477 4.86303C18.2953 4.91273 17.8377 4.84582 17.4184 4.66865C17.0361 4.50709 16.6974 4.21677 16.02 3.63612V3.63612C15.1204 2.86507 14.6707 2.47955 14.1729 2.31445C13.6278 2.13368 13.039 2.13368 12.4939 2.31445C11.9962 2.47955 11.5464 2.86507 10.6468 3.63612V3.63612C9.9694 4.21677 9.63069 4.50709 9.24839 4.66865C8.82915 4.84582 8.37155 4.91273 7.91914 4.86303C7.50659 4.8177 7.09893 4.63652 6.28361 4.27416L2.66675 2.66666V20.8C2.66675 23.7869 2.66675 25.2804 3.24805 26.4213C3.75937 27.4248 4.57527 28.2407 5.5788 28.752C6.71966 29.3333 8.21314 29.3333 11.2001 29.3333H26.6667M24.0001 16H25.0667C26.5602 16 27.307 16 27.8774 16.2906C28.3792 16.5463 28.7871 16.9543 29.0428 17.456C29.3334 18.0265 29.3334 18.7732 29.3334 20.2667V26.6667C29.3334 28.1394 28.1395 29.3333 26.6667 29.3333V29.3333C25.194 29.3333 24.0001 28.1394 24.0001 26.6667V16ZM14.0001 22.6667H18.0001M8.66675 12H18.0001M14.0001 17.3333H18.0001M10.0001 17.3333C10.0001 17.7015 9.7016 18 9.33342 18C8.96523 18 8.66675 17.7015 8.66675 17.3333M10.0001 17.3333C10.0001 16.9651 9.7016 16.6667 9.33342 16.6667C8.96523 16.6667 8.66675 16.9651 8.66675 17.3333M10.0001 17.3333H8.66675M10.0001 22.6667C10.0001 23.0349 9.7016 23.3333 9.33342 23.3333C8.96523 23.3333 8.66675 23.0349 8.66675 22.6667M10.0001 22.6667C10.0001 22.2985 9.7016 22 9.33342 22C8.96523 22 8.66675 22.2985 8.66675 22.6667M10.0001 22.6667H8.66675" stroke="#CF0014" stroke-width="1.5" stroke-linecap="round" stroke-linejoin="round"/>
</svg>
