<svg width="17" height="18" viewBox="0 0 17 18" fill="none" xmlns="http://www.w3.org/2000/svg">
<path d="M6.16797 4.62372V11.4987M11.168 6.49872V13.3737M11.5872 16.2891L15.6497 14.2578C15.9673 14.099 16.168 13.7744 16.168 13.4193V3.01562C16.168 2.3187 15.4346 1.86543 14.8112 2.1771L11.5872 3.78909C11.3233 3.92105 11.0126 3.92105 10.7487 3.78909L6.58723 1.70835C6.3233 1.57638 6.01264 1.57638 5.74871 1.70835L1.68621 3.7396C1.3686 3.8984 1.16797 4.22303 1.16797 4.57813V14.9818C1.16797 15.6787 1.90139 16.132 2.52473 15.8203L5.74871 14.2083C6.01264 14.0764 6.3233 14.0764 6.58723 14.2083L10.7487 16.2891C11.0126 16.4211 11.3233 16.4211 11.5872 16.2891Z" stroke="#0F172A" stroke-width="1.5" stroke-linecap="round" stroke-linejoin="round"/>
</svg>
