<svg width="24" height="24" viewBox="0 0 24 24" fill="none" xmlns="http://www.w3.org/2000/svg">
<path d="M9.6 19.5C9.6 19.0029 10.0029 18.6 10.5 18.6H13.5C13.9971 18.6 14.4 19.0029 14.4 19.5C14.4 19.9971 13.9971 20.4 13.5 20.4H10.5C10.0029 20.4 9.6 19.9971 9.6 19.5Z" fill="white"/>
<path fill-rule="evenodd" clip-rule="evenodd" d="M4.8 4.8C4.8 2.81177 6.41178 1.2 8.4 1.2H15.6C17.5882 1.2 19.2 2.81177 19.2 4.8V19.2C19.2 21.1882 17.5882 22.8 15.6 22.8H8.4C6.41178 22.8 4.8 21.1882 4.8 19.2V4.8ZM9.6 3V3.9C9.6 4.39705 10.0029 4.8 10.5 4.8H13.5C13.9971 4.8 14.4 4.39705 14.4 3.9V3H15.6C16.5941 3 17.4 3.80588 17.4 4.8V19.2C17.4 20.1941 16.5941 21 15.6 21H8.4C7.40589 21 6.6 20.1941 6.6 19.2V4.8C6.6 3.80588 7.40589 3 8.4 3H9.6Z" fill="white"/>
</svg>
