<svg width="24" height="24" viewBox="0 0 24 24" fill="none" xmlns="http://www.w3.org/2000/svg">
<path d="M9.5998 19.5C9.5998 19.003 10.0027 18.6 10.4998 18.6H13.4998C13.9969 18.6 14.3998 19.003 14.3998 19.5C14.3998 19.9971 13.9969 20.4 13.4998 20.4H10.4998C10.0027 20.4 9.5998 19.9971 9.5998 19.5Z" fill="#333333"/>
<path fill-rule="evenodd" clip-rule="evenodd" d="M4.7998 4.80001C4.7998 2.81179 6.41158 1.20001 8.3998 1.20001H15.5998C17.588 1.20001 19.1998 2.81179 19.1998 4.80001V19.2C19.1998 21.1882 17.588 22.8 15.5998 22.8H8.39981C6.41158 22.8 4.7998 21.1882 4.7998 19.2V4.80001ZM9.5998 3.00001V3.90001C9.5998 4.39707 10.0027 4.80001 10.4998 4.80001H13.4998C13.9969 4.80001 14.3998 4.39707 14.3998 3.90001V3.00001H15.5998C16.5939 3.00001 17.3998 3.8059 17.3998 4.80001V19.2C17.3998 20.1941 16.5939 21 15.5998 21H8.39981C7.40569 21 6.5998 20.1941 6.5998 19.2V4.80001C6.5998 3.8059 7.40569 3.00001 8.3998 3.00001H9.5998Z" fill="#333333"/>
</svg>
