<svg width="24" height="24" viewBox="0 0 24 24" fill="none" xmlns="http://www.w3.org/2000/svg">
<path fill-rule="evenodd" clip-rule="evenodd" d="M11.2719 15.0464C11.2559 15.1038 11.2408 15.1525 11.2286 15.2011C10.5171 18.079 10.4379 18.7182 9.70661 20.055C9.35792 20.6903 8.96495 21.2925 8.53051 21.8684C8.48151 21.9336 8.43533 22.0173 8.33732 21.9969C8.22989 21.9735 8.22141 21.8743 8.2101 21.7848C8.09324 20.9101 8.02822 20.0335 8.05649 19.1501C8.09324 18.0002 8.23083 17.6052 9.66703 11.3708C9.68776 11.2755 9.6642 11.1967 9.63404 11.111C9.29007 10.1537 9.22222 9.18176 9.52284 8.19718C10.1731 6.07041 12.5083 5.90793 12.9164 7.66208C13.168 8.74687 12.5027 10.1673 11.9919 12.2668C11.5688 13.9986 13.544 15.2303 15.2318 13.9655C16.7886 12.8 17.3927 10.0058 17.2777 8.025C17.0516 4.07598 12.857 3.22274 10.1966 4.49432C7.14615 5.95076 6.45255 9.85405 7.83032 11.6384C8.00466 11.865 8.33355 12.0042 8.27607 12.2338C8.18748 12.5908 8.10926 12.9508 8.01314 13.3059C7.94152 13.5705 7.53347 13.6669 7.27431 13.5579C6.76637 13.3458 6.34323 13.0121 6.0002 12.5724C4.8307 11.077 4.49616 8.11937 6.04261 5.61511C7.75587 2.84136 10.943 1.71862 13.8531 2.05914C17.3286 2.46679 19.5253 4.9185 19.9362 7.70004C20.1237 8.96676 19.989 12.0908 18.2663 14.2993C16.2845 16.8366 13.0719 17.0049 11.5895 15.4473C11.4755 15.3276 11.3841 15.1885 11.2719 15.0455V15.0464Z" fill="white"/>
</svg>
