<svg width="25" height="24" viewBox="0 0 25 24" fill="none" xmlns="http://www.w3.org/2000/svg">
<path fill-rule="evenodd" clip-rule="evenodd" d="M9.5 23.263C10.7426 23.263 11.75 22.2556 11.75 21.013C11.75 19.7704 10.7426 18.763 9.5 18.763C8.25736 18.763 7.25 19.7704 7.25 21.013C7.25 22.2556 8.25736 23.263 9.5 23.263Z" stroke="white" stroke-width="1.5" stroke-linecap="round" stroke-linejoin="round"/>
<path d="M1.25 21.013H7.25" stroke="white" stroke-width="1.5" stroke-linecap="round" stroke-linejoin="round"/>
<path d="M11.75 21.013H14C14.8284 21.013 15.5 20.3414 15.5 19.513V17.263C15.5 15.6061 14.1569 14.263 12.5 14.263H9.5L7.329 9.921C6.82077 8.90488 5.78213 8.26304 4.646 8.263H1.25" stroke="white" stroke-width="1.5" stroke-linecap="round" stroke-linejoin="round"/>
<path d="M1.25 14.263H9.5" stroke="white" stroke-width="1.5" stroke-linecap="round" stroke-linejoin="round"/>
<path d="M11.527 11.263C10.8182 10.128 10.3812 8.84466 10.25 7.513C10.25 3.78508 13.2721 0.763 17 0.763C20.7279 0.763 23.75 3.78508 23.75 7.513C23.75 10.104 20.489 14.528 18.5 16.986" stroke="white" stroke-width="1.5" stroke-linecap="round" stroke-linejoin="round"/>
<path fill-rule="evenodd" clip-rule="evenodd" d="M17 9.763C18.2426 9.763 19.25 8.75564 19.25 7.513C19.25 6.27036 18.2426 5.263 17 5.263C15.7574 5.263 14.75 6.27036 14.75 7.513C14.75 8.75564 15.7574 9.763 17 9.763Z" stroke="white" stroke-width="1.5" stroke-linecap="round" stroke-linejoin="round"/>
</svg>
