<svg width="20" height="20" viewBox="0 0 20 20" fill="none" xmlns="http://www.w3.org/2000/svg">
<path fill-rule="evenodd" clip-rule="evenodd" d="M7.5 19.3858C8.53553 19.3858 9.375 18.5463 9.375 17.5108C9.375 16.4753 8.53553 15.6358 7.5 15.6358C6.46447 15.6358 5.625 16.4753 5.625 17.5108C5.625 18.5463 6.46447 19.3858 7.5 19.3858Z" stroke="black" stroke-width="1.5" stroke-linecap="round" stroke-linejoin="round"/>
<path d="M0.625 17.5108H5.625" stroke="black" stroke-width="1.5" stroke-linecap="round" stroke-linejoin="round"/>
<path d="M9.375 17.5108H11.25C11.9404 17.5108 12.5 16.9512 12.5 16.2608V14.3858C12.5 13.0051 11.3807 11.8858 10 11.8858H7.5L5.69083 8.26747C5.26731 7.4207 4.40178 6.88584 3.455 6.8858H0.625" stroke="black" stroke-width="1.5" stroke-linecap="round" stroke-linejoin="round"/>
<path d="M0.625 11.8858H7.5" stroke="black" stroke-width="1.5" stroke-linecap="round" stroke-linejoin="round"/>
<path d="M9.04052 9.41306C8.463 8.50357 8.10691 7.47517 8 6.40807C8 3.42077 10.4624 0.999084 13.5 0.999084C16.5376 0.999084 19 3.42077 19 6.40807C19 8.48432 16.3429 12.0294 14.7222 13.9991" stroke="black" stroke-width="1.5" stroke-linecap="round" stroke-linejoin="round"/>
<path fill-rule="evenodd" clip-rule="evenodd" d="M13.625 7.8858C14.5915 7.8858 15.375 7.1023 15.375 6.1358C15.375 5.1693 14.5915 4.3858 13.625 4.3858C12.6585 4.3858 11.875 5.1693 11.875 6.1358C11.875 7.1023 12.6585 7.8858 13.625 7.8858Z" stroke="black" stroke-width="1.5" stroke-linecap="round" stroke-linejoin="round"/>
</svg>
