<svg width="20" height="21" viewBox="0 0 20 21" fill="none" xmlns="http://www.w3.org/2000/svg">
<path d="M18.1012 11.1263C18.117 10.9196 18.125 10.7107 18.125 10.4999C18.125 9.22972 17.8336 8.02765 17.3139 6.95688C16.283 7.9355 15.056 8.70947 13.6978 9.2137C13.7324 9.63785 13.75 10.0668 13.75 10.4999C13.75 11.4175 13.6709 12.3167 13.5191 13.191C15.1802 12.773 16.7265 12.0659 18.1012 11.1263Z" fill="#333333"/>
<path d="M12.1953 13.4583C12.395 12.5035 12.5 11.514 12.5 10.4999C12.5 10.1929 12.4904 9.88813 12.4714 9.58592C11.6784 9.77484 10.8509 9.87486 10 9.87486C9.14913 9.87486 8.32162 9.77484 7.52858 9.58592C7.50962 9.88813 7.5 10.1929 7.5 10.4999C7.5 11.514 7.60501 12.5035 7.80475 13.4583C8.52048 13.568 9.2536 13.6249 10 13.6249C10.7464 13.6249 11.4795 13.568 12.1953 13.4583Z" fill="#333333"/>
<path d="M8.14353 14.7657C8.75232 14.8378 9.37183 14.8749 10 14.8749C10.6282 14.8749 11.2477 14.8378 11.8565 14.7657C11.4283 16.1454 10.7979 17.4362 10 18.6032C9.20206 17.4362 8.57168 16.1454 8.14353 14.7657Z" fill="#333333"/>
<path d="M6.48088 13.191C6.32911 12.3167 6.25 11.4175 6.25 10.4999C6.25 10.0668 6.26762 9.63785 6.30218 9.2137C4.94405 8.70947 3.71699 7.9355 2.68611 6.95688C2.16645 8.02765 1.875 9.22972 1.875 10.4999C1.875 10.7107 1.88303 10.9196 1.8988 11.1263C3.27355 12.0659 4.81978 12.773 6.48088 13.191Z" fill="#333333"/>
<path d="M17.7967 12.7936C16.9503 15.6753 14.5498 17.892 11.5646 18.4743C12.2866 17.2601 12.8488 15.9398 13.222 14.5423C14.8552 14.1999 16.3946 13.6025 17.7967 12.7936Z" fill="#333333"/>
<path d="M2.20329 12.7936C3.60535 13.6025 5.14477 14.1999 6.77797 14.5423C7.15122 15.9398 7.71335 17.2602 8.43535 18.4743C5.45023 17.892 3.0497 15.6753 2.20329 12.7936Z" fill="#333333"/>
<path d="M11.5646 2.52538C13.666 2.93529 15.4776 4.15509 16.6614 5.84658C15.7793 6.73729 14.7198 7.45201 13.5402 7.93339C13.2184 5.9856 12.5363 4.15936 11.5646 2.52538Z" fill="#333333"/>
<path d="M10 2.39648C11.1906 4.13782 12.0081 6.15439 12.3375 8.33112C11.5903 8.52289 10.807 8.62486 10 8.62486C9.19296 8.62486 8.40975 8.52289 7.66253 8.33112C7.99192 6.15439 8.80944 4.13781 10 2.39648Z" fill="#333333"/>
<path d="M8.43535 2.52538C7.46373 4.15935 6.78163 5.9856 6.45976 7.93339C5.28024 7.45201 4.22074 6.73729 3.33862 5.84658C4.52241 4.15508 6.33404 2.93529 8.43535 2.52538Z" fill="#333333"/>
</svg>
