<svg width="20" height="21" viewBox="0 0 20 21" fill="none" xmlns="http://www.w3.org/2000/svg">
<path fill-rule="evenodd" clip-rule="evenodd" d="M3.75 2.375C3.40482 2.375 3.125 2.65482 3.125 3C3.125 3.34518 3.40482 3.625 3.75 3.625V17.375H3.125C2.77982 17.375 2.5 17.6548 2.5 18C2.5 18.3452 2.77982 18.625 3.125 18.625H16.875C17.2202 18.625 17.5 18.3452 17.5 18C17.5 17.6548 17.2202 17.375 16.875 17.375H16.25V3.625C16.5952 3.625 16.875 3.34518 16.875 3C16.875 2.65482 16.5952 2.375 16.25 2.375H3.75ZM7.5 5.5C7.15482 5.5 6.875 5.77982 6.875 6.125C6.875 6.47018 7.15482 6.75 7.5 6.75H8.75C9.09518 6.75 9.375 6.47018 9.375 6.125C9.375 5.77982 9.09518 5.5 8.75 5.5H7.5ZM6.875 8.625C6.875 8.27982 7.15482 8 7.5 8H8.75C9.09518 8 9.375 8.27982 9.375 8.625C9.375 8.97018 9.09518 9.25 8.75 9.25H7.5C7.15482 9.25 6.875 8.97018 6.875 8.625ZM7.5 10.5C7.15482 10.5 6.875 10.7798 6.875 11.125C6.875 11.4702 7.15482 11.75 7.5 11.75H8.75C9.09518 11.75 9.375 11.4702 9.375 11.125C9.375 10.7798 9.09518 10.5 8.75 10.5H7.5ZM10.625 6.125C10.625 5.77982 10.9048 5.5 11.25 5.5H12.5C12.8452 5.5 13.125 5.77982 13.125 6.125C13.125 6.47018 12.8452 6.75 12.5 6.75H11.25C10.9048 6.75 10.625 6.47018 10.625 6.125ZM11.25 8C10.9048 8 10.625 8.27982 10.625 8.625C10.625 8.97018 10.9048 9.25 11.25 9.25H12.5C12.8452 9.25 13.125 8.97018 13.125 8.625C13.125 8.27982 12.8452 8 12.5 8H11.25ZM10.625 11.125C10.625 10.7798 10.9048 10.5 11.25 10.5H12.5C12.8452 10.5 13.125 10.7798 13.125 11.125C13.125 11.4702 12.8452 11.75 12.5 11.75H11.25C10.9048 11.75 10.625 11.4702 10.625 11.125ZM7.5 16.75V14.875C7.5 14.5298 7.77982 14.25 8.125 14.25H11.875C12.2202 14.25 12.5 14.5298 12.5 14.875V16.75C12.5 17.0952 12.2202 17.375 11.875 17.375H8.125C7.77982 17.375 7.5 17.0952 7.5 16.75Z" fill="#333333"/>
</svg>
