<svg width="21" height="20" viewBox="0 0 21 20" fill="none" xmlns="http://www.w3.org/2000/svg">
<path fill-rule="evenodd" clip-rule="evenodd" d="M6.58334 5C6.58334 2.92893 8.26228 1.25 10.3333 1.25C12.4044 1.25 14.0833 2.92893 14.0833 5C14.0833 7.07107 12.4044 8.75 10.3333 8.75C8.26228 8.75 6.58334 7.07107 6.58334 5Z" fill="#333333"/>
<path fill-rule="evenodd" clip-rule="evenodd" d="M3.45938 16.7544C3.52383 13.013 6.57666 10 10.3333 10C14.0901 10 17.143 13.0131 17.2073 16.7547C17.2116 17.0028 17.0686 17.23 16.8431 17.3335C14.8606 18.2432 12.6554 18.75 10.3336 18.75C8.01156 18.75 5.80621 18.2431 3.82361 17.3332C3.59805 17.2297 3.45511 17.0026 3.45938 16.7544Z" fill="#333333"/>
</svg>
