<svg width="20" height="21" viewBox="0 0 20 21" fill="none" xmlns="http://www.w3.org/2000/svg">
<path fill-rule="evenodd" clip-rule="evenodd" d="M10 2.375C5.51269 2.375 1.875 6.01269 1.875 10.5C1.875 14.9873 5.51269 18.625 10 18.625C14.4873 18.625 18.125 14.9873 18.125 10.5C18.125 6.01269 14.4873 2.375 10 2.375ZM10.625 5.5C10.625 5.15482 10.3452 4.875 10 4.875C9.65482 4.875 9.375 5.15482 9.375 5.5V10.5C9.375 10.8452 9.65482 11.125 10 11.125H13.75C14.0952 11.125 14.375 10.8452 14.375 10.5C14.375 10.1548 14.0952 9.875 13.75 9.875H10.625V5.5Z" fill="#333333"/>
</svg>
