<svg width="16" height="16" viewBox="0 0 16 16" fill="none" xmlns="http://www.w3.org/2000/svg">
<path fill-rule="evenodd" clip-rule="evenodd" d="M0.239665 4.7996C0.543198 5.08145 1.01775 5.06387 1.2996 4.76034L3.25 2.6599L3.25 11.25C3.25 11.6642 3.58579 12 4 12C4.41422 12 4.75 11.6642 4.75 11.25V2.6599L6.70041 4.76034C6.98226 5.06387 7.45681 5.08145 7.76034 4.79959C8.06388 4.51774 8.08145 4.04319 7.7996 3.73966L4.5496 0.239662C4.40769 0.0868364 4.20855 9.11608e-09 4 0C3.79145 -9.11608e-09 3.59232 0.0868364 3.45041 0.239662L0.200408 3.73966C-0.081444 4.04319 -0.0638681 4.51774 0.239665 4.7996ZM8.23967 11.2004C7.93613 11.4823 7.91856 11.9568 8.20041 12.2603L11.4504 15.7603C11.5923 15.9132 11.7915 16 12 16C12.2086 16 12.4077 15.9132 12.5496 15.7603L15.7996 12.2603C16.0815 11.9568 16.0639 11.4823 15.7603 11.2004C15.4568 10.9186 14.9823 10.9361 14.7004 11.2397L12.75 13.3401V4.75C12.75 4.33579 12.4142 4 12 4C11.5858 4 11.25 4.33579 11.25 4.75V13.3401L9.2996 11.2397C9.01775 10.9361 8.5432 10.9186 8.23967 11.2004Z" fill="#0F172A"/>
</svg>
