<svg width="21" height="20" viewBox="0 0 21 20" fill="none" xmlns="http://www.w3.org/2000/svg">
<path d="M10.5 15V10.625M10.5 10.625C10.9316 10.625 11.3505 10.5704 11.75 10.4675M10.5 10.625C10.0684 10.625 9.64953 10.5704 9.25 10.4675M12.375 16.6995C11.7677 16.8147 11.1409 16.875 10.5 16.875C9.85913 16.875 9.23235 16.8147 8.625 16.6995M11.75 18.685C11.3392 18.728 10.9222 18.75 10.5 18.75C10.0778 18.75 9.6608 18.728 9.25 18.685M12.375 15V14.8403C12.375 14.0212 12.9236 13.3209 13.632 12.9098C15.4963 11.8281 16.75 9.81047 16.75 7.5C16.75 4.04822 13.9518 1.25 10.5 1.25C7.04822 1.25 4.25 4.04822 4.25 7.5C4.25 9.81047 5.50371 11.8281 7.36796 12.9098C8.07644 13.3209 8.625 14.0212 8.625 14.8403V15" stroke="#CF0014" stroke-width="1.25" stroke-linecap="round" stroke-linejoin="round"/>
</svg>
