<svg width="21" height="20" viewBox="0 0 21 20" fill="none" xmlns="http://www.w3.org/2000/svg">
<path fill-rule="evenodd" clip-rule="evenodd" d="M6.29163 1.875C6.6368 1.875 6.91663 2.15482 6.91663 2.5V3.75H14.4166V2.5C14.4166 2.15482 14.6964 1.875 15.0416 1.875C15.3868 1.875 15.6666 2.15482 15.6666 2.5V3.75H16.2916C17.6723 3.75 18.7916 4.86929 18.7916 6.25V15.625C18.7916 17.0057 17.6723 18.125 16.2916 18.125H5.04163C3.66091 18.125 2.54163 17.0057 2.54163 15.625V6.25C2.54163 4.86929 3.66091 3.75 5.04163 3.75H5.66663V2.5C5.66663 2.15482 5.94645 1.875 6.29163 1.875ZM17.5416 9.375C17.5416 8.68464 16.982 8.125 16.2916 8.125H5.04163C4.35127 8.125 3.79163 8.68464 3.79163 9.375V15.625C3.79163 16.3154 4.35127 16.875 5.04163 16.875H16.2916C16.982 16.875 17.5416 16.3154 17.5416 15.625V9.375Z" fill="#333333"/>
</svg>
